# xmcd
#
# Track frame offsets: 
#        150
#        14681
#        26467
#        37911
#        47461
#        57744
#        70450
#        81065
#        93194
#        105641
#        115760
#        128523
#        140548
#        153424
#        164603
#        175864
#        191159
#        202208
#        213429
#        226938
#        239139
#        250685
#        261222
#        271335
#        283669
#        295147
#        304739
#        312611
#        323534
#
# Disc length: 4440 seconds
#
# Revision: 0
# Processed by: cddbd v1.5.1PL0 Copyright (c) Steve Scherf et al.
# Submitted via: ExactAudioCopy v0.95a4
#
DISCID=ab11561d
DTITLE=Various Artist - Detroit In The 50's Vol. Two
DYEAR=1900
DGENRE=Country
TTITLE0=Earl and Joyce Songer - We're Satisfied
TTITLE1=Earl and Joyce Songer - Smiling Through The Years
TTITLE2=The Eagles (voc. Roy Hall) - I'm The Boss In This House
TTITLE3=Jack Luker And The Tennessee Valley Boys - Smokey Mountain Gal
TTITLE4=Rufus Shoffner - Got Anything Good?
TTITLE5=Rufus Shoffner - Why Do You Treat Me The Way You Do
TTITLE6=Jimmy Myers And His Happy Highway Gang - Ding Dong Mana From T
TTITLE6=ennessee
TTITLE7=Chuck Oakes And His Chuck Wagon Boys - Hey! It's Chuck's Boogi
TTITLE7=e
TTITLE8=Sonny Sexton And His Musical Westernaires - It's A Long Road (
TTITLE8=That Never Turns)
TTITLE9=Leon Benson And His Rhythm Ramblers - St. Joe Boogie
TTITLE10=Floyd Compton And His Western Troubadours - She Won't Turn Me
TTITLE10=Over
TTITLE11=Earl And Joyce Songer And The Rocky Road Ramblers - Dissatisf
TTITLE11=ied
TTITLE12=Earl And Joyce Songer And The Rocky Road Ramblers - Blue Moun
TTITLE12=tain Girl
TTITLE13=Earl Songer And His Rocky Road Ramblers - Spanish Fire Bells
TTITLE14=Forest Rye - Wildcat Boogie
TTITLE15=Boots Gilbert And Bob Sykes with Chuck Hatfield and The Treble-
TTITLE15=Aires - Take It Or Leave It
TTITLE16=Boots Gilbert with Chuck Hatfield and The Treble-Aires - Man! T
TTITLE16=urn Me Loose
TTITLE17=Jimmy Williams And The Drifters - Teardrops And Memories
TTITLE18=Jimmy Williams And The Drifters - Loveless Kisses
TTITLE19=Rambling Rufus Shoffner And His Tennessee River Boys - Shotgu
TTITLE19=n Wedding
TTITLE20=Rambling Rufus Shoffner And His Tennessee River Boys - Afraid
TTITLE20=I'll Lose You
TTITLE21=Buster Turner And His Pinnacle Mt. Boys - That Old Heartbreak
TTITLE21=Express
TTITLE22=Roy Rector and Slim Bradford - I Didn't Know I Loved You
TTITLE23=May Hawks With Chuck Hatfield and The Treble-Aires - Meet Me Do
TTITLE23=wn In Nashville
TTITLE24=Will Hayes With The Ozark Valley Boys - Honeymoon In The Moun
TTITLE24=tains
TTITLE25=Pete Debree And The Wanderers - Wanderer's Blues
TTITLE26=Pete Debree And The Wanderers - My Bucket's Got A Hole In It
TTITLE27=Hugh Friar - Empty Arms
TTITLE28=Ford Nix And The Sunnysiders - Ain't No Sign
EXTD=
EXTT0=
EXTT1=
EXTT2=
EXTT3=
EXTT4=
EXTT5=
EXTT6=
EXTT7=
EXTT8=
EXTT9=
EXTT10=
EXTT11=
EXTT12=
EXTT13=
EXTT14=
EXTT15=
EXTT16=
EXTT17=
EXTT18=
EXTT19=
EXTT20=
EXTT21=
EXTT22=
EXTT23=
EXTT24=
EXTT25=
EXTT26=
EXTT27=
EXTT28=
PLAYORDER=
